HIERARCHY
ROOT Hips
{
	OFFSET 0.000000 0.000000 0.000000
	CHANNELS 6 Xposition Yposition Zposition Zrotation Yrotation Xrotation 
	JOINT LHipJoint
	{
		OFFSET 0.000000 0.000000 0.000000
		CHANNELS 3 Zrotation Yrotation Xrotation
		JOINT LeftUpLeg
		{
			OFFSET 1.363060 -1.794630 0.839290
			CHANNELS 3 Zrotation Yrotation Xrotation
			JOINT LeftLeg
			{
				OFFSET 2.448110 -6.726130 0.000000
				CHANNELS 3 Zrotation Yrotation Xrotation
				JOINT LeftFoot
				{
					OFFSET 2.562200 -7.039590 0.000000
					CHANNELS 3 Zrotation Yrotation Xrotation
					JOINT LeftToeBase
					{
						OFFSET 0.157640 -0.433110 2.322550
						CHANNELS 3 Zrotation Yrotation Xrotation
						End Site
						{
							OFFSET 0.000000 0.000000 0.000000
						}
					}
				}
			}
		}
	}
	JOINT RHipJoint
	{
		OFFSET 0.000000 0.000000 0.000000
		CHANNELS 3 Zrotation Yrotation Xrotation
		JOINT RightUpLeg
		{
			OFFSET -1.305520 -1.794630 0.839290
			CHANNELS 3 Zrotation Yrotation Xrotation
			JOINT RightLeg
			{
				OFFSET -2.542530 -6.985550 0.000000
				CHANNELS 3 Zrotation Yrotation Xrotation
				JOINT RightFoot
				{
					OFFSET -2.568260 -7.056230 0.000000
					CHANNELS 3 Zrotation Yrotation Xrotation
					JOINT RightToeBase
					{
						OFFSET -0.164730 -0.452590 2.363150
						CHANNELS 3 Zrotation Yrotation Xrotation
						End Site
						{
							OFFSET 0.000000 0.000000 0.000000
						}
					}
				}
			}
		}
	}
	JOINT LowerBack
	{
		OFFSET 0.000000 0.000000 0.000000
		CHANNELS 3 Zrotation Yrotation Xrotation
		JOINT Spine
		{
			OFFSET 0.028270 2.035590 -0.193380
			CHANNELS 3 Zrotation Yrotation Xrotation
			JOINT Spine1
			{
				OFFSET 0.056720 2.048850 -0.042750
				CHANNELS 3 Zrotation Yrotation Xrotation
				JOINT Neck
				{
					OFFSET 0.000000 0.000000 0.000000
					CHANNELS 3 Zrotation Yrotation Xrotation
					JOINT Neck1
					{
						OFFSET -0.054170 1.746240 0.172020
						CHANNELS 3 Zrotation Yrotation Xrotation
						JOINT Head
						{
							OFFSET 0.104070 1.761360 -0.123970
							CHANNELS 3 Zrotation Yrotation Xrotation
							End Site
							{
								OFFSET 0.000000 0.000000 0.000000
							}
						}
					}
				}
				JOINT LeftShoulder
				{
					OFFSET 0.000000 0.000000 0.000000
					CHANNELS 3 Zrotation Yrotation Xrotation
					JOINT LeftArm
					{
						OFFSET 3.362410 1.200890 -0.311210
						CHANNELS 3 Zrotation Yrotation Xrotation
						JOINT LeftForeArm
						{
							OFFSET 4.983000 -0.000000 -0.000000
							CHANNELS 3 Zrotation Yrotation Xrotation
							JOINT LeftHand
							{
								OFFSET 3.483560 -0.000000 -0.000000
								CHANNELS 3 Zrotation Yrotation Xrotation
								JOINT LeftFingerBase
								{
									OFFSET 0.000000 0.000000 0.000000
									CHANNELS 3 Zrotation Yrotation Xrotation
									JOINT LeftHandIndex1
									{
										OFFSET 0.715260 -0.000000 -0.000000
										CHANNELS 3 Zrotation Yrotation Xrotation
										End Site
										{
											OFFSET 0.000000 0.000000 0.000000
										}
									}
								}
								JOINT LThumb
								{
									OFFSET 0.000000 0.000000 0.000000
									CHANNELS 3 Zrotation Yrotation Xrotation
									End Site
									{
										OFFSET 0.000000 0.000000 0.000000
									}
								}
							}
						}
					}
				}
				JOINT RightShoulder
				{
					OFFSET 0.000000 0.000000 0.000000
					CHANNELS 3 Zrotation Yrotation Xrotation
					JOINT RightArm
					{
						OFFSET -3.136600 1.374050 -0.404650
						CHANNELS 3 Zrotation Yrotation Xrotation
						JOINT RightForeArm
						{
							OFFSET -5.241900 -0.000000 -0.000000
							CHANNELS 3 Zrotation Yrotation Xrotation
							JOINT RightHand
							{
								OFFSET -3.444170 -0.000000 -0.000000
								CHANNELS 3 Zrotation Yrotation Xrotation
								JOINT RightFingerBase
								{
									OFFSET 0.000000 0.000000 0.000000
									CHANNELS 3 Zrotation Yrotation Xrotation
									JOINT RightHandIndex1
									{
										OFFSET -0.622530 -0.000000 -0.000000
										CHANNELS 3 Zrotation Yrotation Xrotation
										End Site
										{
											OFFSET 0.000000 0.000000 0.000000
										}
									}
								}
								JOINT RThumb
								{
									OFFSET 0.000000 0.000000 0.000000
									CHANNELS 3 Zrotation Yrotation Xrotation
									End Site
									{
										OFFSET 0.000000 0.000000 0.000000
									}
								}
							}
						}
					}
				}
			}
		}
	}
}
MOTION
Frames: 6
Frame Time: 0.008333
-0.894745 15.341097 0.091153 27.039397 79.926081 50.131788 -9.347870 -0.621900 -5.152164 -14.374283 9.769108 -48.834871 -1.865082 4.419937 62.780392 2.650634 9.612959 -28.417766 -4.005500 -0.000000 -45.091000 11.638604 2.878098 -5.377338 5.892712 -9.998297 -57.783411 -3.051613 -7.686827 92.099351 -1.230818 -4.346810 -19.609922 0.904400 0.000000 -36.920700 -3.170693 -2.698134 12.957155 -1.162052 -2.423817 -0.217913 -4.777437 -2.285608 -0.767977 5.148728 -7.598131 -3.613768 -2.154713 -0.187268 0.686539 0.000000 0.000000 0.000000 1.318274 2.351340 0.282093 -54.325445 -33.124361 2.006781 -179.699325 -86.538786 179.948852 5.478466 2.923890 0.121583 -0.156538 0.475262 -0.000000 0.000000 0.000000 0.000000 0.000000 0.000000 0.000000 3.745909 -5.412950 1.746499 74.904946 -22.906896 19.574095 0.340371 64.297667 -0.038457 -18.772946 7.351560 -1.259138 0.168886 -0.194001 0.000000 0.000000 0.000000 0.000000 0.000000 0.000000 0.000000 
-0.705603 15.420157 0.156662 26.438131 79.570807 49.377086 -9.397115 -0.500167 -5.206997 -14.099271 10.142353 -47.021123 -1.963996 4.258096 61.291371 2.684539 10.007586 -28.097785 -4.079800 -0.000000 -45.631000 11.469430 3.006524 -5.200712 6.323388 -9.602507 -58.860365 -2.794943 -7.588725 90.503938 -1.324265 -4.693665 -19.813495 0.994200 -0.000000 -36.382800 -2.817081 -2.855872 12.859572 -1.072610 -2.607049 -0.218480 -4.677050 -2.476133 -0.714171 5.040466 -8.231073 -3.727038 -2.088898 -0.182326 0.665712 0.000000 0.000000 0.000000 2.004150 2.509593 0.190325 -52.982540 -33.524051 0.993901 -179.654803 -85.468273 179.951417 5.161051 2.610493 0.099254 -0.145456 0.490245 -0.000000 0.000000 0.000000 0.000000 0.000000 0.000000 0.000000 3.374444 -6.115731 1.640247 74.095607 -24.203887 20.400344 0.320864 66.238193 -0.037656 -18.505861 7.225957 -1.220391 0.171172 -0.194135 0.000000 0.000000 0.000000 0.000000 0.000000 0.000000 0.000000 
-0.512327 15.506328 0.224615 25.761664 79.178284 48.589291 -9.444472 -0.375666 -5.226872 -13.806884 10.431080 -45.195767 -2.046433 4.080943 59.675393 2.715122 10.455597 -27.557536 -4.117600 0.000000 -46.205600 11.291367 3.118194 -5.008894 6.766595 -9.217382 -59.872722 -2.516620 -7.472422 88.666847 -1.436455 -5.127948 -19.923103 1.090900 0.000000 -35.880500 -2.448326 -3.000965 12.710586 -0.974457 -2.778362 -0.234294 -4.562004 -2.656438 -0.659104 4.904918 -8.878177 -3.840645 -2.018003 -0.177043 0.645679 0.000000 0.000000 0.000000 2.622550 2.680859 0.098533 -51.723365 -33.591263 0.021798 -179.611651 -84.346717 179.953638 4.892844 2.356146 0.082428 -0.135914 0.502454 -0.000000 0.000000 0.000000 0.000000 0.000000 0.000000 0.000000 2.949106 -6.825179 1.525509 73.324336 -25.413087 21.173320 0.300269 68.171232 -0.036907 -18.210041 6.971846 -1.159446 0.173729 -0.193512 -0.000000 0.000000 0.000000 0.000000 0.000000 0.000000 0.000000 
-0.314837 15.598933 0.295063 25.000888 78.753205 47.760228 -9.493304 -0.249687 -5.212252 -13.492324 10.644891 -43.385314 -2.107803 3.894250 57.966998 2.736655 10.934811 -26.762919 -4.097800 0.000000 -46.911400 11.103757 3.208023 -4.801825 7.237930 -8.840362 -60.808596 -2.219296 -7.336405 86.582958 -1.565452 -5.634529 -19.929440 1.187300 0.000000 -35.457800 -2.062609 -3.132937 12.508635 -0.867208 -2.936918 -0.266100 -4.433292 -2.825451 -0.604348 4.746555 -9.522142 -3.949060 -1.943501 -0.171582 0.627901 0.000000 0.000000 0.000000 3.193622 2.858063 0.005684 -50.613148 -33.330689 -0.861812 -179.569297 -83.183808 179.955576 4.665200 2.163080 0.070103 -0.127947 0.511727 -0.000000 0.000000 0.000000 0.000000 0.000000 0.000000 0.000000 2.477134 -7.520780 1.405305 72.601759 -26.544286 21.888127 0.279913 70.064771 -0.036145 -17.883827 6.640414 -1.085605 0.176303 -0.192263 -0.000000 0.000000 0.000000 0.000000 0.000000 0.000000 0.000000 
-0.113213 15.697157 0.368257 24.153092 78.299280 46.885961 -9.546429 -0.122860 -5.167087 -13.152310 10.802857 -41.613481 -2.145691 3.704408 56.201888 2.742802 11.414203 -25.687058 -3.998100 0.000001 -47.861600 10.907101 3.271183 -4.580386 7.750969 -8.467907 -61.653175 -1.905006 -7.179789 84.247064 -1.708087 -6.190228 -19.832092 1.274900 -0.000000 -35.139700 -1.661450 -3.251308 12.257012 -0.751830 -3.081856 -0.313450 -4.293746 -2.981953 -0.552164 4.573247 -10.147082 -4.049858 -1.867829 -0.166128 0.612848 0.000000 0.000000 0.000000 3.738972 3.037864 -0.088018 -49.701257 -32.759348 -1.616427 -179.526556 -81.986379 179.957351 4.464161 2.027640 0.061379 -0.121408 0.518113 -0.000000 0.000000 0.000000 0.000000 0.000000 0.000000 0.000000 1.974485 -8.183291 1.281720 71.933774 -27.610473 22.538206 0.260572 71.903978 -0.035344 -17.526954 6.288926 -1.008765 0.178638 -0.190752 -0.000000 0.000000 0.000000 0.000000 0.000000 0.000000 0.000000 
0.092358 15.800136 0.444545 23.223822 77.818022 45.968456 -9.606339 0.004971 -5.098005 -12.784719 10.932248 -39.900102 -2.160059 3.518007 54.413766 2.726950 11.855483 -24.310163 -3.797800 0.000000 -49.167900 10.702721 3.303479 -4.346052 8.315908 -8.095750 -62.388603 -1.575138 -7.001890 81.653987 -1.859828 -6.764214 -19.637921 1.344900 -0.000000 -34.944100 -1.247807 -3.356011 11.962766 -0.630198 -3.212683 -0.373646 -4.148421 -3.124891 -0.500639 4.394634 -10.747497 -4.147706 -1.792884 -0.160723 0.598905 0.000000 0.000000 0.000000 4.260505 3.238871 -0.178982 -48.997018 -31.933653 -2.207416 -179.482296 -80.772822 179.959074 4.276459 1.943031 0.055457 -0.116154 0.521821 -0.000000 0.000000 0.000000 0.000000 0.000000 0.000000 0.000000 1.460165 -8.805231 1.154491 71.319217 -28.612321 23.130043 0.242469 73.681339 -0.034504 -17.146070 5.975093 -0.938630 0.180571 -0.189495 -0.000000 0.000000 0.000000 0.000000 0.000000 0.000000 0.000000 
